HIERARCHY
ROOT joint_0
{
	OFFSET 0.000000 0.000000 0.000000
	CHANNELS 6 Xposition Yposition Zposition Zrotation Yrotation Xrotation 
	JOINT joint_1
	{
		OFFSET 11.612000 -0.419000 106.198000
		CHANNELS 3 Zrotation Yrotation Xrotation
		JOINT joint_2
		{
			OFFSET -1.708000 -1.022000 97.564090
			CHANNELS 3 Zrotation Yrotation Xrotation
			JOINT joint_3
			{
				OFFSET -4.121000 -1.538000 97.375000
				CHANNELS 3 Zrotation Yrotation Xrotation
				JOINT joint_4
				{
					OFFSET 5.442000 -2.123000 132.795900
					CHANNELS 3 Zrotation Yrotation Xrotation
					JOINT joint_5
					{
						OFFSET 21.935000 0.195000 82.975100
						CHANNELS 3 Zrotation Yrotation Xrotation
						End Site
						{
							OFFSET 0.000000 0.000000 0.000000
						}
					}
				}
				JOINT joint_6
				{
					OFFSET 4.262000 -30.048000 73.899900
					CHANNELS 3 Zrotation Yrotation Xrotation
					JOINT joint_7
					{
						OFFSET 9.731000 -136.810010 -21.963010
						CHANNELS 3 Zrotation Yrotation Xrotation
						JOINT joint_8
						{
							OFFSET 33.360000 -35.709000 -267.597900
							CHANNELS 3 Zrotation Yrotation Xrotation
							JOINT joint_9
							{
								OFFSET 36.156000 -29.759000 -240.558040
								CHANNELS 3 Zrotation Yrotation Xrotation
								End Site
								{
									OFFSET 0.000000 0.000000 0.000000
								}
							}
						}
					}
				}
				JOINT joint_10
				{
					OFFSET 2.027000 27.734000 74.914920
					CHANNELS 3 Zrotation Yrotation Xrotation
					JOINT joint_11
					{
						OFFSET -5.183000 136.784000 -23.604980
						CHANNELS 3 Zrotation Yrotation Xrotation
						JOINT joint_12
						{
							OFFSET 29.806000 37.229000 -267.809940
							CHANNELS 3 Zrotation Yrotation Xrotation
							JOINT joint_13
							{
								OFFSET 36.890000 46.524990 -237.772030
								CHANNELS 3 Zrotation Yrotation Xrotation
								End Site
								{
									OFFSET 0.000000 0.000000 0.000000
								}
							}
						}
					}
				}
			}
		}
	}
	JOINT joint_14
	{
		OFFSET -7.290000 -102.873990 -124.314940
		CHANNELS 3 Zrotation Yrotation Xrotation
		JOINT joint_15
		{
			OFFSET -15.466000 -19.909010 -438.533020
			CHANNELS 3 Zrotation Yrotation Xrotation
			JOINT joint_16
			{
				OFFSET -26.899000 -18.922000 -464.797000
				CHANNELS 3 Zrotation Yrotation Xrotation
				JOINT joint_17
				{
					OFFSET 179.329000 -12.011000 -84.174000
					CHANNELS 3 Zrotation Yrotation Xrotation
					End Site
					{
						OFFSET 0.000000 0.000000 0.000000
					}
				}
			}
		}
	}
	JOINT joint_18
	{
		OFFSET -6.225000 101.546000 -125.479980
		CHANNELS 3 Zrotation Yrotation Xrotation
		JOINT joint_19
		{
			OFFSET -13.973000 7.996000 -438.963010
			CHANNELS 3 Zrotation Yrotation Xrotation
			JOINT joint_20
			{
				OFFSET -44.294000 5.716000 -463.813970
				CHANNELS 3 Zrotation Yrotation Xrotation
				JOINT joint_21
				{
					OFFSET 178.505000 -4.689000 -85.139000
					CHANNELS 3 Zrotation Yrotation Xrotation
					End Site
					{
						OFFSET 0.000000 0.000000 0.000000
					}
				}
			}
		}
	}
}
MOTION
Frames: 15
Frame Time: 0.016667
-2897.119873 834.989746 1122.928955 -15.990143 -2.535101 -0.060512 1.497793 14.899979 4.201626 -3.175765 -2.487774 -0.817728 -4.227922 2.425716 0.607385 -1.557648 4.352204 5.845939 0.000000 0.000000 0.000000 -8.276448 -48.125982 4.525511 10.992911 -6.633915 4.615775 15.188170 -70.156948 7.471265 0.000000 0.000000 0.000000 0.168767 -18.543499 7.547206 -0.596070 -19.433890 2.026228 -15.127679 -82.291281 9.511355 0.000000 0.000000 0.000000 4.179936 -14.920369 -10.334854 1.718425 50.617846 12.668260 -3.968433 2.256344 -1.286796 0.000000 0.000000 0.000000 6.103324 -4.085091 0.083530 6.896212 18.843355 3.994635 6.963465 -8.011985 2.886265 0.000000 0.000000 0.000000 
-2892.085938 831.698486 1126.439941 -15.959834 -2.218106 0.033325 1.254363 14.829104 4.145659 -3.154542 -2.472808 -0.802582 -4.037837 2.396931 0.614301 -1.552196 4.295929 5.811389 0.000000 0.000000 0.000000 -7.756087 -46.713327 3.959141 10.794235 -7.525923 4.612613 15.698890 -70.891109 6.589683 0.000000 0.000000 0.000000 0.279726 -18.786691 7.364147 -1.162938 -17.887964 1.284818 -14.796716 -82.909842 9.427909 0.000000 0.000000 0.000000 4.079561 -15.925739 -10.346199 1.476820 47.354308 12.197987 -3.401004 0.607179 -1.221240 0.000000 0.000000 0.000000 6.118365 -3.407371 0.095774 6.740574 17.344201 3.870118 6.749852 -6.681344 2.847108 0.000000 0.000000 0.000000 
-2887.194580 827.765747 1129.583984 -15.854674 -1.876548 0.132766 0.980950 14.757231 4.070009 -3.113617 -2.461165 -0.786573 -3.841068 2.368634 0.618100 -1.548676 4.234105 5.802845 0.000000 0.000000 0.000000 -7.397972 -45.648417 3.581433 10.673062 -8.177320 4.613104 16.127754 -71.639433 5.807984 0.000000 0.000000 0.000000 0.371398 -18.828985 7.198431 -1.377758 -16.734706 0.566474 -14.422638 -83.380112 8.860379 0.000000 0.000000 0.000000 3.957202 -16.757973 -10.198159 1.224881 43.582578 11.405262 -2.736670 -0.711095 -1.095179 0.000000 0.000000 0.000000 6.088171 -2.852856 0.160292 6.573675 16.009962 3.722385 6.533643 -5.387372 2.802913 0.000000 0.000000 0.000000 
-2882.611816 823.028748 1132.088989 -15.676730 -1.508081 0.194998 0.713424 14.667296 4.021697 -3.052348 -2.453447 -0.779318 -3.647506 2.357680 0.612784 -1.552463 4.185097 5.814546 0.000000 0.000000 0.000000 -7.307006 -45.003791 3.481385 10.586342 -8.604277 4.568639 16.430869 -72.300279 5.325320 0.000000 0.000000 0.000000 0.436665 -18.789106 7.056054 -1.262189 -15.978405 0.068588 -13.985895 -83.689955 7.824918 0.000000 0.000000 0.000000 3.706901 -17.526336 -9.807048 0.882307 39.581523 10.195011 -2.226496 -1.758611 -1.000979 0.000000 0.000000 0.000000 6.010170 -2.489451 0.346894 6.404115 14.960842 3.541156 6.322779 -4.283453 2.751735 0.000000 0.000000 0.000000 
-2878.291748 817.568237 1134.142944 -15.404717 -1.115867 0.265418 0.434074 14.590351 3.935575 -2.985372 -2.461681 -0.751974 -3.465374 2.352038 0.601281 -1.564561 4.137857 5.847726 0.000000 0.000000 0.000000 -7.382732 -44.664458 3.566336 10.525646 -8.893025 4.509134 16.651031 -72.916923 5.034510 0.000000 0.000000 0.000000 0.501164 -18.730453 6.957663 -0.895691 -15.464270 -0.287657 -13.470404 -83.874121 6.332675 0.000000 0.000000 0.000000 3.371968 -18.110969 -9.229186 0.518323 35.020498 8.575070 -1.723597 -2.374528 -0.865900 0.000000 0.000000 0.000000 5.883481 -2.282445 0.598310 6.216039 14.129735 3.330176 6.096974 -3.274101 2.688214 0.000000 0.000000 0.000000 
-2873.850342 811.480652 1135.517944 -14.980538 -0.805237 0.382614 0.156469 14.578847 3.816836 -2.947430 -2.482404 -0.710816 -3.329935 2.346732 0.592185 -1.578749 4.100302 5.885924 0.000000 0.000000 0.000000 -7.478502 -44.465036 3.658463 10.421148 -9.080742 4.438718 16.785532 -73.593712 4.949430 0.000000 0.000000 0.000000 0.544566 -18.667340 6.902631 -0.479429 -15.107151 -0.584513 -13.003627 -83.972306 4.859509 0.000000 0.000000 0.000000 3.042011 -18.339299 -8.603638 0.251947 30.280017 6.829554 -1.163949 -2.593083 -0.662144 0.000000 0.000000 0.000000 5.731087 -2.096441 0.828660 6.017332 13.527504 3.162931 5.878068 -2.490593 2.617458 0.000000 0.000000 0.000000 
-2869.062988 804.803772 1136.058960 -14.418552 -0.599582 0.527075 -0.108643 14.598015 3.735340 -2.936931 -2.475473 -0.699749 -3.227998 2.341644 0.588402 -1.594087 4.076009 5.931230 0.000000 0.000000 0.000000 -7.503904 -44.293864 3.638361 10.186370 -9.204513 4.354561 16.809008 -74.396292 5.164694 0.000000 0.000000 0.000000 0.540986 -18.611109 6.910672 -0.143717 -14.858556 -0.885665 -12.651012 -84.018682 3.710011 0.000000 0.000000 0.000000 2.808194 -18.224388 -7.927706 0.183324 25.687353 4.972793 -0.492698 -3.100315 -0.413579 0.000000 0.000000 0.000000 5.589164 -1.885655 1.028090 5.840203 13.152793 3.083001 5.702261 -2.066463 2.552451 0.000000 0.000000 0.000000 
-2864.075195 797.502197 1135.859009 -13.727047 -0.468142 0.693455 -0.364375 14.644416 3.675650 -2.949144 -2.450328 -0.708179 -3.156997 2.340473 0.588930 -1.613292 4.059868 5.988561 0.000000 0.000000 0.000000 -7.498213 -44.183735 3.557209 9.817952 -9.286124 4.260557 16.723752 -75.277765 5.696821 0.000000 0.000000 0.000000 0.507875 -18.600013 6.987234 0.154304 -14.703592 -1.164597 -12.344275 -84.013786 2.705079 0.000000 0.000000 0.000000 2.665805 -17.800874 -7.158968 0.316832 21.040376 2.816977 0.221428 -3.950872 -0.159328 0.000000 0.000000 0.000000 5.447993 -1.695020 1.219658 5.675958 13.000359 3.067158 5.553857 -1.951272 2.488399 0.000000 0.000000 0.000000 
-2858.762451 789.678955 1134.891968 -12.891445 -0.493270 0.944744 -0.603840 14.781509 3.545123 -2.986280 -2.474751 -0.675329 -3.136505 2.347841 0.591946 -1.623752 4.077769 6.006932 0.000000 0.000000 0.000000 -7.507887 -44.139288 3.488135 9.457937 -9.288100 4.176088 16.631168 -76.212107 6.245303 0.000000 0.000000 0.000000 0.484724 -18.644619 7.024860 0.377719 -14.606554 -1.356757 -12.090584 -83.948511 1.834470 0.000000 0.000000 0.000000 2.629005 -17.030164 -6.601903 0.606372 16.779958 0.996042 0.794303 -3.663188 0.111992 0.000000 0.000000 0.000000 5.273957 -1.482505 1.365596 5.486937 13.162252 3.085156 5.388420 -2.045070 2.407276 0.000000 0.000000 0.000000 
-2852.863281 781.398499 1132.999023 -11.980586 -0.666600 1.277683 -0.843707 14.892686 3.362165 -3.007314 -2.533677 -0.623700 -3.114818 2.376619 0.587262 -1.615587 4.162613 5.951685 0.000000 0.000000 0.000000 -7.561279 -44.138997 3.474522 9.171533 -9.192919 4.114641 16.598709 -77.207592 6.654499 0.000000 0.000000 0.000000 0.500949 -18.759850 6.949388 0.480309 -14.546010 -1.408404 -11.903911 -83.798746 1.117355 0.000000 0.000000 0.000000 2.796325 -15.963629 -6.432444 1.062495 13.299668 0.088007 1.283619 -1.189205 0.493328 0.000000 0.000000 0.000000 5.076351 -1.245613 1.485483 5.282340 13.660073 3.098493 5.206047 -2.345904 2.309968 0.000000 0.000000 0.000000 
-2846.426514 772.618896 1130.188965 -11.058459 -0.922378 1.614433 -1.083252 14.888914 3.239124 -2.983057 -2.573021 -0.620625 -3.045636 2.428286 0.576049 -1.591765 4.311260 5.844156 0.000000 0.000000 0.000000 -7.635241 -44.152928 3.488719 8.859853 -9.053029 4.069950 16.594471 -78.254445 7.081102 0.000000 0.000000 0.000000 0.540851 -18.962179 6.805775 0.461917 -14.517256 -1.344019 -11.765417 -83.568073 0.554512 0.000000 0.000000 0.000000 3.204540 -14.686291 -6.433916 1.711761 10.456790 -0.230070 1.820622 2.623795 0.988299 0.000000 0.000000 0.000000 4.882965 -1.038691 1.655108 5.093307 14.462260 3.109562 5.038512 -2.901633 2.210474 0.000000 0.000000 0.000000 
-2840.230957 763.374268 1127.090942 -10.225695 -1.269350 1.850193 -1.229718 14.953867 3.253547 -2.890880 -2.600198 -0.632408 -2.912717 2.474237 0.574932 -1.556112 4.446943 5.696166 0.000000 0.000000 0.000000 -7.741174 -44.210576 3.583127 8.571557 -8.925256 3.996618 16.666731 -79.222132 7.396165 0.000000 0.000000 0.000000 0.578865 -19.248969 6.610508 0.378649 -14.488267 -1.209455 -11.627214 -83.321307 0.075987 0.000000 0.000000 0.000000 3.496773 -13.667139 -6.316368 2.142729 8.844221 -0.342810 2.114285 5.586459 1.320370 0.000000 0.000000 0.000000 4.676997 -1.033279 1.998675 4.910520 15.786136 3.136498 4.875875 -3.523948 2.107804 0.000000 0.000000 0.000000 
-2834.851318 753.519836 1123.902954 -9.601058 -1.719763 1.833898 -1.199321 15.196161 3.577412 -2.672675 -2.603839 -0.671052 -2.654787 2.489144 0.598683 -1.504944 4.533473 5.486539 0.000000 0.000000 0.000000 -7.893644 -44.368866 3.821443 8.368482 -8.827247 3.817671 16.868199 -80.032629 7.446722 0.000000 0.000000 0.000000 0.612207 -19.671311 6.313647 0.245185 -14.465268 -0.967318 -11.471758 -83.067484 -0.345042 0.000000 0.000000 0.000000 3.285493 -13.375053 -5.806955 1.887095 9.285156 -0.330654 1.848519 5.816649 1.216466 0.000000 0.000000 0.000000 4.457485 -1.383620 2.700286 4.736368 17.881117 3.198621 4.716339 -4.172580 2.000442 0.000000 0.000000 0.000000 
-2829.991455 743.037659 1120.379028 -9.136500 -2.269872 1.578027 -1.034257 15.548422 4.235389 -2.329801 -2.578949 -0.770663 -2.269797 2.475813 0.636803 -1.435712 4.607978 5.213995 0.000000 0.000000 0.000000 -8.075392 -44.572479 4.175016 8.199255 -8.783988 3.533893 17.203588 -80.725339 7.291815 0.000000 0.000000 0.000000 0.645988 -20.251926 5.908732 0.032333 -14.443906 -0.600783 -11.310638 -82.760110 -0.678381 0.000000 0.000000 0.000000 2.699730 -13.604477 -4.988775 1.090551 11.508341 -0.049682 1.125386 4.138183 0.778361 0.000000 0.000000 0.000000 4.225192 -2.009334 3.740691 4.557302 20.626942 3.289056 4.549427 -4.817727 1.884211 0.000000 0.000000 0.000000 
-2825.389893 732.697205 1117.527954 -8.664745 -2.808965 1.372644 -0.890263 15.960875 4.853997 -2.004316 -2.564081 -0.863232 -1.906390 2.463012 0.681981 -1.368624 4.618254 4.954475 0.000000 0.000000 0.000000 -8.196333 -44.651137 4.479789 8.071205 -8.858529 3.289298 17.638774 -81.302163 7.022917 0.000000 0.000000 0.000000 0.658812 -20.740284 5.599142 -0.128912 -14.313162 -0.377375 -11.107496 -82.530620 -1.032133 0.000000 0.000000 0.000000 2.142340 -13.882265 -4.300269 0.294649 14.010991 0.290634 0.355946 2.238479 0.306643 0.000000 0.000000 0.000000 3.950639 -2.773995 4.730233 4.323266 23.487730 3.336292 4.330202 -4.863301 1.757838 0.000000 0.000000 0.000000 
